<?xml version="1.0" standalone="no"?>
<!DOCTYPE svg PUBLIC "-//W3C//DTD SVG 20010904//EN"
 "http://www.w3.org/TR/2001/REC-SVG-20010904/DTD/svg10.dtd">
<svg version="1.0" xmlns="http://www.w3.org/2000/svg"
 width="640.000000pt" height="640.000000pt" viewBox="0 0 640.000000 640.000000"
 preserveAspectRatio="xMidYMid meet">
<metadata>
Created by potrace 1.11, written by Peter Selinger 2001-2013
</metadata>
<g transform="translate(0.000000,640.000000) scale(0.100000,-0.100000)"
fill="#000000" stroke="none">
<path d="M1539 5755 c-3 -2 -14 -6 -25 -8 -36 -8 -84 -29 -84 -38 0 -5 -6 -9
-14 -9 -7 0 -31 -21 -52 -46 -21 -26 -44 -52 -49 -58 -6 -6 -26 -31 -45 -56
-19 -25 -40 -52 -47 -60 -38 -47 -127 -158 -141 -175 -10 -11 -105 -130 -212
-265 -107 -135 -197 -247 -200 -250 -3 -3 -21 -25 -40 -50 -48 -62 -52 -67
-112 -140 -29 -36 -56 -69 -60 -75 -11 -14 -76 -96 -96 -120 -10 -11 -78 -97
-152 -190 -74 -94 -138 -172 -141 -175 -4 -3 -19 -30 -35 -60 -25 -48 -29 -66
-29 -140 0 -70 5 -94 25 -135 37 -75 2962 -3000 3035 -3035 72 -34 199 -34
270 0 40 19 333 307 1536 1509 l1486 1486 22 67 c17 50 21 82 18 125 -3 32 -6
59 -7 61 -2 1 -3 5 -4 10 -10 42 -52 116 -89 154 -7 7 -64 78 -127 158 -63 80
-117 147 -120 150 -3 3 -93 115 -200 250 -107 135 -197 247 -200 250 -3 3 -57
70 -120 150 -63 80 -117 147 -120 150 -3 3 -86 106 -184 230 -223 281 -244
301 -351 329 -40 11 -3326 17 -3336 6z"/>
</g>
</svg>
